<svg width="48" height="48" viewBox="0 0 48 48" fill="none" xmlns="http://www.w3.org/2000/svg">
<path d="M24 4C12.954 4 4 12.954 4 24C4 35.046 12.954 44 24 44C35.046 44 44 35.046 44 24C44 12.954 35.046 4 24 4ZM24 8C32.836 8 40 15.164 40 24C40 32.836 32.836 40 24 40C22.5288 40 21.111 39.7859 19.7578 39.4141C20.1834 38.5566 20.5652 37.6529 20.7734 36.8516C21.0034 35.9716 21.9453 32.3828 21.9453 32.3828C22.5573 33.5508 24.346 34.543 26.25 34.543C31.916 34.543 36 29.3315 36 22.8555C36 16.6455 30.9341 12 24.4141 12C16.3041 12 12 17.4431 12 23.3711C12 26.1271 13.4665 29.5583 15.8125 30.6523C16.1685 30.8183 16.3594 30.7463 16.4414 30.4023C16.5054 30.1403 16.8228 28.8635 16.9648 28.2695C17.0108 28.0815 16.9899 27.9165 16.8359 27.7305C16.0599 26.7885 15.4375 25.0593 15.4375 23.4453C15.4375 19.2993 18.5759 15.2891 23.9219 15.2891C28.5379 15.2891 31.7695 18.4356 31.7695 22.9336C31.7695 28.0156 29.2033 31.5352 25.8633 31.5352C24.0193 31.5352 22.6341 30.0126 23.0781 28.1406C23.6081 25.9066 24.6367 23.4948 24.6367 21.8828C24.6367 20.4408 23.8657 19.2383 22.2617 19.2383C20.3757 19.2383 18.8594 21.1868 18.8594 23.8008C18.8594 25.4648 19.4219 26.5898 19.4219 26.5898C19.4219 26.5898 17.5608 34.4637 17.2188 35.9297C17.0493 36.6532 16.9927 37.5103 16.9883 38.3672C11.6715 35.7662 8 30.3173 8 24C8 15.164 15.164 8 24 8Z" fill="#434343"></path>
</svg>
